<svg width="200" height="45" viewBox="0 0 200 45" fill="none" xmlns="http://www.w3.org/2000/svg">
<rect x="0.5" y="0.5" width="199" height="44" rx="5.5" fill="white" stroke="black"/>
<path d="M102.05 22.9L101.04 21.2201C103.85 20.8301 106.29 19.27 106.84 17.01H101.8V15.29H109.14C109.12 19.75 105.56 22.16 102.05 22.9ZM103.71 30.28V26.04H112V24.9401H103.62V23.3H114.05V27.54H105.79V28.6201H114.54V30.28H103.71ZM112 22.51V21.17H109.05V19.6101H112V18.28H109.33V16.7201H112V14.6201H114.05V22.51H112Z" fill="black"/>
<path d="M122.94 26.7401C121.91 26.0901 120.59 24.4801 120.2 23.0801C119.83 24.5501 118.49 26.3701 117.21 27.0901L115.95 25.6901C118.2 24.2001 119.2 21.9601 119.2 18.8501V18.0901H116.55V16.4401H123.66V18.0901H121.2V18.8101C121.2 21.8901 122.23 24.1301 124.1 25.2501L122.94 26.7401ZM124.67 29.66V21.7501H122.62V20.05H124.67V14.92H126.6V29.65H124.67V29.66ZM127.8 30.38V14.6201H129.76V30.38H127.8Z" fill="black"/>
<path d="M131.57 20.02V18.3701H140.71V20.02H131.57ZM136.15 20.5701C138.41 20.5701 139.95 21.9901 139.95 23.9701C139.95 25.9001 138.41 27.3701 136.15 27.3701C133.89 27.3701 132.35 25.9701 132.35 23.9701C132.35 22.0401 133.89 20.5701 136.15 20.5701ZM133.781 15.65H138.64V17.28H133.781V15.65ZM136.15 25.6801C137.3 25.6801 137.94 24.9901 137.94 23.9601C137.94 22.9201 137.18 22.2301 136.15 22.2301C135.12 22.2301 134.36 22.9201 134.36 23.9601C134.37 24.9901 135.11 25.6801 136.15 25.6801ZM143.97 21.01H146.16V22.7201H143.97V30.38H141.88V14.6201H143.97V21.01Z" fill="black"/>
<path d="M148.09 27.54L146.82 25.9801C150.27 24.4101 152.62 21.1201 152.9 17.9901H147.771V16.27H155.13C155.01 21.03 152.9 24.92 148.09 27.54ZM157.91 30.38V14.6201H159.98V30.38H157.91Z" fill="black"/>
<path d="M92.3799 17.4698L89.6899 23.5999L86.6499 17.4698H84.3098L88.6199 25.9799L86.8398 29.9498H89.1099L94.6499 17.4698H92.3799ZM83.01 26.9498H80.78V26.0598C79.98 26.7498 79.0099 27.1398 77.8499 27.1398C75.1899 27.1398 73.0999 24.9698 73.0999 22.2098C73.0999 19.4498 75.1799 17.2798 77.8499 17.2798C79.0099 17.2798 79.97 17.6599 80.78 18.3599V17.4698H83.01V26.9498ZM81.04 22.2098C81.04 20.4198 79.7899 19.0698 78.1399 19.0698C76.4899 19.0698 75.24 20.4298 75.24 22.2098C75.24 23.9998 76.4899 25.3499 78.1399 25.3499C79.7999 25.3499 81.04 23.9898 81.04 22.2098ZM62.0498 29.9498H64.3699V26.1498C65.1499 26.7898 66.09 27.1498 67.2 27.1498C69.86 27.1498 71.95 24.9798 71.95 22.2198C71.95 19.4598 69.87 17.2898 67.2 17.2898C66.04 17.2898 65.08 17.6699 64.27 18.3699V17.4799H62.04V29.9498H62.0498ZM66.9199 19.0598C68.5699 19.0598 69.8198 20.4198 69.8198 22.1998C69.8198 23.9898 68.5699 25.3398 66.9199 25.3398C65.2699 25.3398 64.02 23.9798 64.02 22.1998C64.02 20.4198 65.2599 19.0598 66.9199 19.0598Z" fill="black"/>
<path d="M57.8901 22.4999C57.8901 27.8399 53.5602 32.1698 48.2102 32.1698C42.8702 32.1698 38.5303 27.8399 38.5303 22.4999C38.5303 17.1599 42.8602 12.8198 48.2102 12.8198C53.5602 12.8198 57.8901 17.1499 57.8901 22.4999ZM49.8401 17.9498V22.8198L46.4602 17.9498H43.6702V27.0398H46.6001V22.1698L49.9802 27.0398H52.7703V17.9498H49.8401Z" fill="black"/>
</svg>
